<svg width="573" height="95" viewBox="0 0 573 95" fill="none" xmlns="http://www.w3.org/2000/svg">
<path d="M179.579 20.4H188.679V75H179.579V20.4ZM153.119 58.9C153.119 55.3067 153.842 52.2733 155.289 49.8C156.735 47.28 158.649 45.3667 161.029 44.06C163.409 42.7533 165.929 42.1 168.589 42.1C171.295 42.1 173.675 42.7767 175.729 44.13C177.829 45.4833 179.462 47.42 180.629 49.94C181.842 52.4133 182.449 55.4 182.449 58.9C182.449 62.3533 181.842 65.34 180.629 67.86C179.462 70.38 177.829 72.3167 175.729 73.67C173.675 75.0233 171.295 75.7 168.589 75.7C165.929 75.7 163.409 75.0467 161.029 73.74C158.649 72.4333 156.735 70.52 155.289 68C153.842 65.48 153.119 62.4467 153.119 58.9ZM162.499 58.9C162.499 60.8133 162.895 62.47 163.689 63.87C164.482 65.27 165.555 66.3433 166.909 67.09C168.262 67.8367 169.709 68.21 171.249 68.21C172.602 68.21 173.909 67.86 175.169 67.16C176.475 66.4133 177.525 65.34 178.319 63.94C179.159 62.54 179.579 60.86 179.579 58.9C179.579 56.94 179.159 55.26 178.319 53.86C177.525 52.46 176.475 51.41 175.169 50.71C173.909 49.9633 172.602 49.59 171.249 49.59C169.709 49.59 168.262 49.9633 166.909 50.71C165.555 51.4567 164.482 52.53 163.689 53.93C162.895 55.33 162.499 56.9867 162.499 58.9ZM200.478 30.34C200.478 28.8467 201.015 27.6333 202.088 26.7C203.161 25.72 204.445 25.23 205.938 25.23C207.431 25.23 208.691 25.72 209.718 26.7C210.791 27.6333 211.328 28.8467 211.328 30.34C211.328 31.7867 210.791 33 209.718 33.98C208.691 34.96 207.431 35.45 205.938 35.45C204.445 35.45 203.161 34.96 202.088 33.98C201.015 33 200.478 31.7867 200.478 30.34ZM201.458 42.8H210.278V75H201.458V42.8ZM221.862 77.24H230.752C230.799 78.64 231.172 79.83 231.872 80.81C232.572 81.8367 233.529 82.63 234.742 83.19C235.955 83.75 237.379 84.03 239.012 84.03C240.505 84.03 241.905 83.68 243.212 82.98C244.565 82.28 245.639 81.2067 246.432 79.76C247.272 78.3133 247.692 76.4933 247.692 74.3V42.8H256.442V74.3C256.442 78.2667 255.649 81.5333 254.062 84.1C252.522 86.6667 250.445 88.5333 247.832 89.7C245.219 90.9133 242.372 91.52 239.292 91.52C235.559 91.52 232.432 90.9133 229.912 89.7C227.392 88.5333 225.455 86.8533 224.102 84.66C222.795 82.5133 222.049 80.04 221.862 77.24ZM221.232 58.62C221.232 55.0267 221.955 52.0167 223.402 49.59C224.849 47.1167 226.762 45.25 229.142 43.99C231.522 42.73 234.042 42.1 236.702 42.1C239.409 42.1 241.789 42.7533 243.842 44.06C245.942 45.3667 247.575 47.2567 248.742 49.73C249.955 52.1567 250.562 55.12 250.562 58.62C250.562 62.0733 249.955 65.0367 248.742 67.51C247.575 69.9833 245.942 71.8733 243.842 73.18C241.789 74.44 239.409 75.07 236.702 75.07C234.042 75.07 231.522 74.44 229.142 73.18C226.762 71.92 224.849 70.0767 223.402 67.65C221.955 65.1767 221.232 62.1667 221.232 58.62ZM230.612 58.62C230.612 60.5333 231.009 62.1667 231.802 63.52C232.595 64.8267 233.669 65.83 235.022 66.53C236.375 67.23 237.822 67.58 239.362 67.58C240.715 67.58 242.022 67.2533 243.282 66.6C244.589 65.9 245.639 64.8967 246.432 63.59C247.272 62.2367 247.692 60.58 247.692 58.62C247.692 57.1267 247.459 55.82 246.992 54.7C246.525 53.58 245.872 52.6467 245.032 51.9C244.239 51.1533 243.352 50.5933 242.372 50.22C241.392 49.8 240.389 49.59 239.362 49.59C237.822 49.59 236.375 49.94 235.022 50.64C233.669 51.34 232.595 52.3667 231.802 53.72C231.009 55.0267 230.612 56.66 230.612 58.62ZM268.318 30.34C268.318 28.8467 268.854 27.6333 269.928 26.7C271.001 25.72 272.284 25.23 273.778 25.23C275.271 25.23 276.531 25.72 277.558 26.7C278.631 27.6333 279.168 28.8467 279.168 30.34C279.168 31.7867 278.631 33 277.558 33.98C276.531 34.96 275.271 35.45 273.778 35.45C272.284 35.45 271.001 34.96 269.928 33.98C268.854 33 268.318 31.7867 268.318 30.34ZM269.298 42.8H278.118V75H269.298V42.8ZM299.082 26H309.302V75H299.082V26ZM315.742 75H305.522V65.9H315.392C317.538 65.9 319.568 65.62 321.482 65.06C323.395 64.4533 325.075 63.52 326.522 62.26C327.968 61 329.088 59.4133 329.882 57.5C330.722 55.54 331.142 53.2067 331.142 50.5C331.142 47.7933 330.722 45.4833 329.882 43.57C329.088 41.61 327.968 40 326.522 38.74C325.075 37.48 323.395 36.57 321.482 36.01C319.568 35.4033 317.538 35.1 315.392 35.1H305.522V26H315.742C320.875 26 325.355 27.0033 329.182 29.01C333.055 31.0167 336.065 33.8633 338.212 37.55C340.358 41.19 341.432 45.5067 341.432 50.5C341.432 55.4933 340.358 59.8333 338.212 63.52C336.065 67.16 333.055 69.9833 329.182 71.99C325.355 73.9967 320.875 75 315.742 75ZM366.129 75V66.53H390.839V75H366.129ZM366.129 34.47V26H390.839V34.47H366.129ZM366.129 53.16V44.83H389.439V53.16H366.129ZM359.689 26H369.349V75H359.689V26ZM430.805 57.92L444.035 26H455.655L430.805 77.87L405.955 26H417.505L430.805 57.92ZM475.74 58.55C476.767 60.37 477.887 61.9567 479.1 63.31C480.36 64.6633 481.737 65.7133 483.23 66.46C484.724 67.2067 486.334 67.58 488.06 67.58C490.067 67.58 491.7 67.0667 492.96 66.04C494.22 65.0133 494.85 63.6133 494.85 61.84C494.85 60.3 494.454 59.0633 493.66 58.13C492.914 57.1967 491.77 56.38 490.23 55.68C488.737 54.9333 486.894 54.14 484.7 53.3C483.534 52.88 482.18 52.32 480.64 51.62C479.147 50.8733 477.724 49.94 476.37 48.82C475.017 47.6533 473.897 46.2533 473.01 44.62C472.124 42.94 471.68 40.9333 471.68 38.6C471.68 35.8 472.38 33.3967 473.78 31.39C475.227 29.3367 477.164 27.7733 479.59 26.7C482.064 25.58 484.817 25.02 487.85 25.02C490.977 25.02 493.66 25.5567 495.9 26.63C498.187 27.6567 500.077 28.9867 501.57 30.62C503.11 32.2067 504.3 33.8633 505.14 35.59L497.3 39.93C496.647 38.7633 495.854 37.7133 494.92 36.78C494.034 35.8 493.007 35.03 491.84 34.47C490.674 33.8633 489.344 33.56 487.85 33.56C485.89 33.56 484.42 34.0267 483.44 34.96C482.46 35.8467 481.97 36.8967 481.97 38.11C481.97 39.3233 482.367 40.3967 483.16 41.33C483.954 42.2167 485.167 43.08 486.8 43.92C488.434 44.7133 490.487 45.53 492.96 46.37C494.547 46.93 496.064 47.63 497.51 48.47C499.004 49.31 500.334 50.3367 501.5 51.55C502.714 52.7167 503.647 54.1167 504.3 55.75C505 57.3367 505.35 59.18 505.35 61.28C505.35 63.66 504.884 65.7833 503.95 67.65C503.017 69.5167 501.734 71.1033 500.1 72.41C498.467 73.67 496.624 74.6267 494.57 75.28C492.564 75.98 490.44 76.33 488.2 76.33C485.214 76.33 482.414 75.77 479.8 74.65C477.234 73.4833 474.994 71.92 473.08 69.96C471.167 68 469.674 65.8767 468.6 63.59L475.74 58.55Z" fill="#1E4A45"/>
<g clip-path="url(#clip0_2004_2)">
<path d="M3.41062 43.7887L14.6006 49.0074C14.4728 49.438 14.3706 49.8814 14.294 50.3247L1.90331 50.54C2.09491 48.2347 2.5931 45.9674 3.41062 43.7887Z" fill="#1E4A45"/>
<path d="M3.19347 43.2313C3.14237 43.358 3.09128 43.4847 3.04018 43.624C2.17156 45.942 1.63505 48.412 1.46899 50.958H1.64783L14.6517 50.73C14.7538 50.0713 14.8944 49.4253 15.0987 48.792L3.19347 43.2313Z" fill="#1E4A45"/>
<path d="M58.3511 22.2427V83.2707H45.2579V79.8C41.4002 82.0167 36.9293 83.2707 32.1647 83.2707C22.4693 83.2707 14.0002 78.052 9.47823 70.2873C7.2428 66.462 5.97818 62.0287 5.97818 57.304C5.97818 57.038 5.97818 56.772 5.99095 56.506H6.02928L6.20811 56.544L19.0459 58.4947H19.1481C19.7612 65.1193 25.3562 70.3 32.1902 70.3C39.4202 70.3 45.2834 64.486 45.2834 57.3167C45.2834 50.1473 39.4202 44.3333 32.1902 44.3333C29.1245 44.3333 26.3014 45.3847 24.066 47.1327L23.8872 47.006L13.0932 39.5327C17.8707 34.4913 24.6536 31.3373 32.1774 31.3373C36.9549 31.3373 41.4257 32.604 45.2707 34.808V22.2427H58.3639H58.3511ZM57.9551 82.8653V22.648H45.6794V35.5047L45.0663 35.15C41.1703 32.908 36.7122 31.73 32.1774 31.73C25.139 31.73 18.5988 34.466 13.7192 39.4567L24.0532 46.6133C26.4036 44.84 29.2139 43.9027 32.1902 43.9027C39.6374 43.9027 45.6922 49.9067 45.6922 57.2913C45.6922 64.676 39.6374 70.68 32.1902 70.68C25.2668 70.68 19.5568 65.6133 18.7776 58.8367L6.41249 56.962C6.41249 57.076 6.41249 57.1773 6.41249 57.2913C6.41249 61.788 7.60046 66.2087 9.86144 70.072C14.46 77.9507 23.0186 82.8527 32.1902 82.8527C36.7249 82.8527 41.183 81.662 45.0791 79.4327L45.6922 79.078V82.8527H57.9679L57.9551 82.8653Z" fill="#1E4A45"/>
<path d="M57.9552 22.6481V82.8654H45.6794V79.0907L45.0663 79.4454C41.1703 81.6747 36.7122 82.8654 32.1774 82.8654C23.0058 82.8654 14.4473 77.9634 9.84867 70.0847C7.58769 66.2214 6.39972 61.8007 6.39972 57.3041C6.39972 57.1901 6.39972 57.0887 6.39972 56.9747L18.7648 58.8494C19.5441 65.6261 25.254 70.6927 32.1774 70.6927C39.6246 70.6927 45.6794 64.6887 45.6794 57.3041C45.6794 49.9194 39.6246 43.9154 32.1774 43.9154C29.2011 43.9154 26.3909 44.8527 24.0405 46.6261L13.7064 39.4694C18.5988 34.4787 25.139 31.7427 32.1647 31.7427C36.6994 31.7427 41.1575 32.9207 45.0535 35.1627L45.6667 35.5174V22.6607H57.9424L57.9552 22.6481Z" fill="#1E4A45"/>
<path d="M126.921 18.3414C133.142 25.232 136.923 34.3394 136.923 44.308C136.923 54.2767 133.142 63.384 126.921 70.2747C119.73 78.242 109.268 83.258 97.6436 83.258V70.2747C112.104 70.2747 123.83 58.6467 123.83 44.308C123.83 29.9694 112.104 18.3414 97.6436 18.3414H84.5504V57.2914H71.4572V5.35803H97.6436C109.281 5.35803 119.73 10.374 126.921 18.3414ZM136.527 44.3207C136.527 34.8207 133.015 25.688 126.628 18.62C119.257 10.45 108.693 5.77603 97.6564 5.77603H71.8659V56.9114H84.1416V17.936H97.6436C112.308 17.936 124.239 29.7667 124.239 44.308C124.239 58.8494 112.525 70.4647 98.0524 70.68V82.8527C108.949 82.7387 119.346 78.0647 126.615 70.0087C133.002 62.9407 136.515 53.808 136.515 44.308L136.527 44.3207Z" fill="#1E4A45"/>
<path d="M126.615 18.62C133.002 25.688 136.515 34.8206 136.515 44.3206C136.515 53.8206 133.002 62.9533 126.615 70.0213C119.334 78.09 108.949 82.7513 98.0524 82.8653V70.6926C112.525 70.4773 124.239 58.7353 124.239 44.3206C124.239 29.906 112.308 17.9486 97.6436 17.9486H84.1416V56.9113H71.8659V5.76331H97.6564C108.706 5.76331 119.257 10.45 126.628 18.6073L126.615 18.62Z" fill="#1E4A45"/>
<path d="M96.3775 82.3666L83.6471 79.3313L80.5861 91.9548L93.3165 94.9902L96.3775 82.3666Z" fill="#1E4A45"/>
<path d="M78.441 74.7264L65.4487 76.3357L67.0716 89.2189L80.0639 87.6096L78.441 74.7264Z" fill="#1E4A45"/>
<path d="M90.9167 61.2617L78.0654 58.7777L75.5603 71.5212L88.4117 74.0052L90.9167 61.2617Z" fill="#1E4A45"/>
<path d="M56.1137 19.4037L60.4607 20.4402L61.4342 16.4253L57.0872 15.3888L56.1137 19.4037Z" fill="#1E4A45"/>
<path d="M46.6479 2.29845L44.3801 1.00012L43.0708 3.2489L45.3386 4.54723L46.6479 2.29845Z" fill="#1E4A45"/>
<path d="M59.3623 10.4943L57.735 8.45984L55.6834 10.0735L57.3107 12.1079L59.3623 10.4943Z" fill="#1E4A45"/>
<path d="M95.6311 71.0414L90.5456 72.2828L91.7975 77.3256L96.883 76.0842L95.6311 71.0414Z" fill="#1E4A45"/>
<path d="M70.1414 68.1434L67.9937 72.88L72.7703 75.0097L74.918 70.2731L70.1414 68.1434Z" fill="#1E4A45"/>
<path d="M82.7901 74.1162L79.3069 75.9303L81.1364 79.3842L84.6195 77.5701L82.7901 74.1162Z" fill="#1E4A45"/>
<path d="M89.2966 76.8226L86.9785 75.6147L85.7604 77.9134L88.0785 79.1212L89.2966 76.8226Z" fill="#1E4A45"/>
<path d="M78.2496 91.0725L75.8017 90.1504L74.8718 92.5778L77.3197 93.4999L78.2496 91.0725Z" fill="#1E4A45"/>
<path d="M69.6576 63.6771L69.1566 66.2258L71.7268 66.7226L72.2278 64.1739L69.6576 63.6771Z" fill="#1E4A45"/>
<path d="M1.07461 53.2207L0.000747681 55.589L2.38909 56.6538L3.46295 54.2856L1.07461 53.2207Z" fill="#1E4A45"/>
<path d="M74.5035 59.2828L71.9051 59.6046L72.2296 62.1813L74.8281 61.8594L74.5035 59.2828Z" fill="#1E4A45"/>
<path d="M27.0824 51.2128L26.264 48.7462L23.7765 49.5577L24.5949 52.0243L27.0824 51.2128Z" fill="#1E4A45"/>
<path d="M6.01677 40.8778L5.8063 38.2896L3.19613 38.4983L3.4066 41.0865L6.01677 40.8778Z" fill="#1E4A45"/>
<path d="M51.1495 5.17722L38.5215 8.60754L41.9809 21.1295L54.6089 17.6992L51.1495 5.17722Z" fill="#1E4A45"/>
<path d="M62.5634 3.0364L49.833 0.00109863L48.9132 3.79432L61.6436 6.82962L62.5634 3.0364Z" fill="#1E4A45"/>
<path d="M21.7923 47.7533L19.5568 50.958L19.0714 50.6287L8.25194 43.1933L7.71544 42.826L9.95087 39.6213L10.5129 40.014L10.5257 40.0267L21.3452 47.4493L21.524 47.576L21.7923 47.7533Z" fill="#1E4A45"/>
<path d="M22.993 53.4154L22.6353 57.2914L22.0605 57.2407L21.9839 57.2281H21.8817L8.9545 56.0501L8.77566 56.0374H8.73734L8.29025 55.9867L8.64792 52.1107L9.15888 52.1614L9.33771 52.1741L22.2904 53.3521L22.4565 53.3647L22.993 53.4154Z" fill="#1E4A45"/>
</g>
<defs>
<clipPath id="clip0_2004_2">
<rect width="137" height="95" fill="white"/>
</clipPath>
</defs>
</svg>
