<svg width="256" height="256" viewBox="0 0 256 256" fill="none" xmlns="http://www.w3.org/2000/svg">
<g clip-path="url(#clip0_2009_92)">
<path d="M7.31864 121.124L28.0495 130.793C27.8128 131.59 27.6235 132.412 27.4815 133.233L4.52613 133.632C4.88111 129.361 5.80406 125.161 7.31864 121.124Z" fill="#E6F400"/>
<path d="M6.91633 120.092C6.82167 120.326 6.72701 120.561 6.63235 120.819C5.0231 125.114 4.02916 129.69 3.72151 134.406H4.05283L28.1441 133.984C28.3334 132.764 28.5938 131.567 28.9724 130.394L6.91633 120.092Z" fill="#E6F400"/>
<path d="M109.103 81.2075V194.27H84.8462V187.84C77.6993 191.947 69.4164 194.27 60.5893 194.27C42.6273 194.27 26.9372 184.602 18.5597 170.217C14.4182 163.13 12.0754 154.916 12.0754 146.163C12.0754 145.67 12.0754 145.178 12.099 144.685H12.17L12.5013 144.755L36.285 148.369H36.4743C37.6102 160.642 47.9757 170.24 60.6366 170.24C74.0312 170.24 84.8935 159.469 84.8935 146.187C84.8935 132.905 74.0312 122.133 60.6366 122.133C54.9569 122.133 49.7269 124.081 45.5855 127.319L45.2541 127.085L25.257 113.239C34.1078 103.9 46.6741 98.0565 60.6129 98.0565C69.4638 98.0565 77.7466 100.403 84.8699 104.486V81.2075H109.127H109.103ZM108.37 193.519V81.9584H85.6272V105.777L84.4912 105.12C77.2733 100.966 69.0141 98.784 60.6129 98.784C47.5733 98.784 35.4567 103.853 26.4166 113.099L45.5618 126.357C49.9162 123.072 55.1226 121.335 60.6366 121.335C74.4335 121.335 85.6508 132.459 85.6508 146.14C85.6508 159.821 74.4335 170.944 60.6366 170.944C47.81 170.944 37.2316 161.557 35.788 149.003L12.88 145.53C12.88 145.741 12.88 145.929 12.88 146.14C12.88 154.47 15.0809 162.66 19.2696 169.818C27.7891 184.414 43.6449 193.495 60.6366 193.495C69.0378 193.495 77.297 191.29 84.5149 187.159L85.6508 186.502V193.495H108.393L108.37 193.519Z" fill="#E6F400"/>
<path d="M108.37 81.9584V193.519H85.6272V186.526L84.4912 187.183C77.2733 191.313 69.0141 193.519 60.6129 193.519C43.6212 193.519 27.7655 184.437 19.246 169.841C15.0572 162.684 12.8563 154.494 12.8563 146.163C12.8563 145.952 12.8563 145.764 12.8563 145.553L35.7644 149.026C37.2079 161.581 47.7863 170.967 60.6129 170.967C74.4098 170.967 85.6272 159.844 85.6272 146.163C85.6272 132.482 74.4098 121.359 60.6129 121.359C55.0989 121.359 49.8925 123.095 45.5381 126.381L26.3929 113.122C35.4567 103.876 47.5733 98.8074 60.5893 98.8074C68.9905 98.8074 77.2497 100.99 84.4676 105.143L85.6035 105.801V81.9818H108.346L108.37 81.9584Z" fill="#E6F400"/>
<path d="M236.139 73.9797C247.664 86.7456 254.669 103.618 254.669 122.086C254.669 140.555 247.664 157.427 236.139 170.193C222.815 184.954 203.433 194.246 181.898 194.246V170.193C208.687 170.193 230.412 148.651 230.412 122.086C230.412 95.5221 208.687 73.9797 181.898 73.9797H157.641V146.14H133.384V49.9264H181.898C203.457 49.9264 222.815 59.2192 236.139 73.9797ZM253.935 122.11C253.935 104.51 247.427 87.5904 235.594 74.496C221.939 59.36 202.368 50.7008 181.921 50.7008H134.141V145.436H156.883V73.2288H181.898C209.065 73.2288 231.169 95.1467 231.169 122.086C231.169 149.026 209.468 170.545 182.655 170.944V193.495C202.841 193.284 222.105 184.625 235.571 169.7C247.403 156.606 253.911 139.686 253.911 122.086L253.935 122.11Z" fill="#E6F400"/>
<path d="M235.571 74.496C247.403 87.5904 253.911 104.51 253.911 122.11C253.911 139.71 247.403 156.629 235.571 169.724C222.081 184.672 202.841 193.308 182.655 193.519V170.967C209.468 170.569 231.169 148.815 231.169 122.11C231.169 95.4048 209.065 73.2522 181.898 73.2522H156.883V145.436H134.141V50.6773H181.921C202.392 50.6773 221.939 59.36 235.594 74.4725L235.571 74.496Z" fill="#E6F400"/>
<path d="M179.552 192.595L155.967 186.972L150.296 210.359L173.881 215.982L179.552 192.595Z" fill="#E6F400"/>
<path d="M146.322 178.441L122.252 181.422L125.259 205.29L149.329 202.308L146.322 178.441Z" fill="#E6F400"/>
<path d="M169.435 153.495L145.626 148.893L140.985 172.502L164.794 177.104L169.435 153.495Z" fill="#E6F400"/>
<path d="M104.958 75.9481L113.011 77.8682L114.815 70.4301L106.762 68.5099L104.958 75.9481Z" fill="#E6F400"/>
<path d="M87.4214 44.2582L83.22 41.8529L80.7943 46.0191L84.9957 48.4244L87.4214 44.2582Z" fill="#E6F400"/>
<path d="M110.977 59.4421L107.962 55.673L104.161 58.6625L107.176 62.4315L110.977 59.4421Z" fill="#E6F400"/>
<path d="M178.169 171.613L168.748 173.913L171.067 183.256L180.488 180.956L178.169 171.613Z" fill="#E6F400"/>
<path d="M130.946 166.245L126.967 175.02L135.817 178.965L139.796 170.19L130.946 166.245Z" fill="#E6F400"/>
<path d="M154.379 177.31L147.927 180.671L151.316 187.07L157.769 183.709L154.379 177.31Z" fill="#E6F400"/>
<path d="M166.434 182.324L162.139 180.086L159.882 184.345L164.177 186.582L166.434 182.324Z" fill="#E6F400"/>
<path d="M145.968 208.724L141.433 207.015L139.71 211.513L144.245 213.221L145.968 208.724Z" fill="#E6F400"/>
<path d="M130.05 157.97L129.122 162.692L133.883 163.613L134.812 158.891L130.05 157.97Z" fill="#E6F400"/>
<path d="M2.99085 138.598L1.00138 142.986L5.42609 144.959L7.41556 140.571L2.99085 138.598Z" fill="#E6F400"/>
<path d="M139.028 149.829L134.214 150.425L134.815 155.199L139.629 154.603L139.028 149.829Z" fill="#E6F400"/>
<path d="M51.1736 134.879L49.6576 130.309L45.0492 131.812L46.5652 136.382L51.1736 134.879Z" fill="#E6F400"/>
<path d="M12.1469 115.731L11.757 110.936L6.92126 111.323L7.31118 116.118L12.1469 115.731Z" fill="#E6F400"/>
<path d="M95.7612 49.5914L72.3662 55.9465L78.7751 79.1451L102.17 72.79L95.7612 49.5914Z" fill="#E6F400"/>
<path d="M116.907 45.6254L93.3223 40.0021L91.6182 47.0296L115.203 52.6529L116.907 45.6254Z" fill="#E6F400"/>
<path d="M41.373 128.469L37.2316 134.406L36.3323 133.796L16.2878 120.021L15.2939 119.341L19.4353 113.404L20.4766 114.131L20.5002 114.155L40.5447 127.906L40.8761 128.141L41.373 128.469Z" fill="#E6F400"/>
<path d="M43.5976 138.959L42.9349 146.14L41.87 146.046L41.728 146.022H41.5387L17.5894 143.84L17.2581 143.817H17.1871L16.3588 143.723L17.0214 136.542L17.968 136.636L18.2993 136.659L42.296 138.842L42.6036 138.865L43.5976 138.959Z" fill="#E6F400"/>
</g>
<defs>
<clipPath id="clip0_2009_92">
<rect width="253.811" height="176" fill="white" transform="translate(1 40)"/>
</clipPath>
</defs>
</svg>
